<?xml version="1.0" standalone="no"?>
<!DOCTYPE svg PUBLIC "-//W3C//DTD SVG 20010904//EN"
 "http://www.w3.org/TR/2001/REC-SVG-20010904/DTD/svg10.dtd">
<svg fill="none" version="1.0" xmlns="http://www.w3.org/2000/svg"
 width="48.000000pt" height="48.000000pt" viewBox="0 0 48.000000 48.000000"
 preserveAspectRatio="xMidYMid meet">

<g transform="translate(0.000000,48.000000) scale(0.100000,-0.100000)"
 stroke="none">
<path d="M60 400 c-18 -18 -20 -33 -20 -150 0 -143 6 -156 53 -125 24 15 27
15 46 -4 18 -18 33 -21 96 -21 70 0 78 -2 125 -36 76 -54 80 -48 80 106 0 117
-2 132 -20 150 -11 11 -29 20 -40 20 -13 0 -20 7 -20 20 0 11 -9 29 -20 40
-18 18 -33 20 -140 20 -107 0 -122 -2 -140 -20z m258 -22 c7 -7 12 -40 12 -78
0 -38 -5 -71 -12 -78 -7 -7 -42 -12 -85 -12 -66 0 -77 -3 -116 -31 l-42 -31
-3 107 c-2 70 1 112 9 121 15 18 219 20 237 2z m81 -82 c8 -9 11 -51 9 -121
l-3 -107 -42 31 c-39 28 -50 31 -117 31 -52 0 -77 4 -86 15 -21 26 0 35 81 35
98 0 119 15 119 85 0 47 16 59 39 31z"/>
</g>
</svg>
