<svg xmlns="http://www.w3.org/2000/svg" width="682.667" height="682.667" fill="none" preserveAspectRatio="xMidYMid meet" version="1.0" viewBox="0 0 512 512"><g stroke="none"><path d="M2415 5106 c-37 -16 -70 -52 -84 -89 -6 -16 -11 -101 -11 -196 0 -162 1 -168 23 -189 33 -31 80 -29 106 4 19 24 21 40 21 180 l0 154 90 0 90 0 0 -965 0 -966 -21 12 c-28 15 -110 15 -138 0 l-21 -12 0 685 c0 653 -1 685 -19 707 -26 32 -86 32 -112 0 -18 -22 -19 -56 -19 -812 l0 -789 -350 -525 c-193 -289 -353 -525 -358 -525 -4 0 -44 56 -89 125 -46 68 -94 132 -109 141 -14 10 -49 19 -77 22 -42 3 -59 -1 -87 -20 -26 -17 -190 -255 -623 -903 -324 -484 -597 -898 -609 -919 -36 -70 -14 -148 56 -200 27 -20 40 -21 532 -24 l504 -3 25 25 c32 32 32 70 0 101 -24 25 -25 25 -220 25 -113 0 -195 4 -193 9 2 5 242 367 533 804 l530 795 213 106 c116 58 216 106 220 106 5 0 78 -52 162 -115 106 -79 162 -115 180 -115 18 0 74 36 180 115 84 63 157 115 162 115 4 0 104 -48 220 -106 l213 -106 530 -795 c292 -437 532 -799 533 -804 2 -5 -619 -9 -1516 -9 -1470 0 -1521 -1 -1543 -19 -32 -26 -32 -86 0 -112 23 -19 75 -19 1851 -17 l1829 3 27 21 c70 52 92 130 56 200 -12 21 -285 435 -609 919 -433 648 -597 886 -623 903 -28 19 -45 23 -87 20 -28 -3 -63 -12 -77 -22 -15 -9 -63 -73 -109 -141 -45 -69 -85 -125 -89 -125 -5 0 -165 236 -358 525 l-350 525 0 490 0 490 254 0 254 0 4 -242 c3 -226 4 -246 25 -283 28 -52 68 -89 123 -114 44 -20 63 -21 601 -21 l556 0 33 23 c55 37 75 72 75 130 0 48 -9 68 -128 275 l-128 224 120 211 c66 117 125 227 132 245 23 67 -15 151 -84 182 -39 18 -69 20 -444 20 l-403 0 0 155 c0 173 -8 206 -63 263 -66 69 -49 66 -506 72 l-414 5 -13 44 c-15 51 -47 88 -91 107 -43 19 -247 18 -288 0z m1200 -331 l25 -24 0 -402 0 -401 -31 6 c-17 3 -206 6 -420 6 l-389 0 0 420 0 420 395 0 396 0 24 -25z m958 -472 c3 -5 -52 -106 -120 -226 -91 -158 -127 -231 -130 -261 -6 -50 -2 -59 151 -326 l106 -185 -526 -3 c-349 -1 -531 1 -544 8 -11 6 -27 24 -35 41 -33 62 18 129 97 129 47 0 129 41 162 81 55 65 56 72 56 417 0 175 3 322 7 325 9 10 771 9 776 0z m-974 -508 c33 -16 41 -33 41 -81 0 -45 -40 -84 -84 -84 -17 0 -46 -4 -64 -9 l-32 -10 0 100 0 99 55 0 c31 0 69 -7 84 -15z m-736 -1330 c164 -245 295 -445 293 -445 -3 0 -60 27 -127 60 -67 33 -130 60 -140 60 -10 0 -88 -52 -173 -116 l-155 -115 -143 107 c-79 59 -154 112 -168 117 -22 8 -45 0 -152 -52 -70 -33 -129 -61 -132 -61 -3 0 127 200 291 445 163 245 299 445 303 445 4 0 140 -200 303 -445z m-1438 -682 c50 -75 90 -142 90 -148 0 -7 -220 -344 -490 -748 l-490 -736 -192 -1 c-106 0 -193 2 -193 5 0 9 1173 1765 1179 1765 3 0 47 -62 96 -137z m2958 -743 c323 -484 587 -882 587 -885 0 -3 -87 -5 -192 -5 l-193 1 -490 736 c-269 404 -490 741 -490 748 0 13 177 284 186 285 3 0 270 -396 592 -880z" transform="translate(0.000000,512.000000) scale(0.100000,-0.100000)"/></g></svg>