<svg xmlns="http://www.w3.org/2000/svg" width="64" height="64" fill="none" preserveAspectRatio="xMidYMid meet" version="1.0" viewBox="0 0 48 48"><g stroke="none"><path d="M130 361 l-85 -78 0 -111 c0 -153 -8 -147 195 -147 203 0 195 -6 195 147 l0 111 -85 78 c-59 56 -92 79 -110 79 -17 0 -51 -24 -110 -79z m196 -17 l74 -66 0 -108 c0 -89 -3 -109 -16 -114 -36 -14 -42 -7 -46 58 -5 87 -15 96 -98 96 -83 0 -93 -9 -98 -96 -4 -65 -10 -72 -46 -58 -13 5 -16 25 -16 113 l0 106 72 67 c40 37 79 67 87 68 7 0 46 -30 87 -66z m-26 -229 l0 -65 -60 0 -60 0 0 65 0 65 60 0 60 0 0 -65z" transform="translate(0.000000,48.000000) scale(0.100000,-0.100000)"/></g></svg>