<?xml version="1.0" standalone="no"?>
<!DOCTYPE svg PUBLIC "-//W3C//DTD SVG 20010904//EN"
 "http://www.w3.org/TR/2001/REC-SVG-20010904/DTD/svg10.dtd">
<svg fill="none" version="1.0" xmlns="http://www.w3.org/2000/svg"
 width="50.000000pt" height="50.000000pt" viewBox="0 0 50.000000 50.000000"
 preserveAspectRatio="xMidYMid meet">

<g transform="translate(0.000000,50.000000) scale(0.100000,-0.100000)"
 stroke="none">
<path d="M415 453 c-55 -29 -148 -110 -275 -237 l-124 -126 29 -30 c16 -16 31
-30 35 -30 3 0 39 43 79 95 40 52 77 95 81 95 5 0 18 -16 30 -35 12 -19 25
-35 30 -35 18 0 92 98 125 165 40 80 56 155 34 155 -8 -1 -27 -8 -44 -17z m18
-65 c-8 -29 -21 -65 -28 -79 -20 -38 -94 -129 -105 -129 -20 0 -9 27 34 85 48
63 56 78 80 138 23 57 37 45 19 -15z m-63 -36 c-43 -73 -94 -132 -104 -122 -6
6 -20 10 -33 10 -13 0 -23 4 -23 8 0 9 88 95 140 136 42 34 50 20 20 -32z
m-170 -136 c0 -18 -17 -29 -30 -21 -8 5 -7 11 1 21 15 18 29 18 29 0z m-40
-48 c0 -6 -17 -32 -37 -57 -20 -25 -38 -48 -40 -50 -2 -3 -11 3 -20 12 -16 16
-14 20 32 67 45 46 65 54 65 28z"/>
</g>
</svg>
