<?xml version="1.0" standalone="no"?>
<!DOCTYPE svg PUBLIC "-//W3C//DTD SVG 20010904//EN"
 "http://www.w3.org/TR/2001/REC-SVG-20010904/DTD/svg10.dtd">
<svg fill="none" version="1.0" xmlns="http://www.w3.org/2000/svg"
 width="64.000000pt" height="64.000000pt" viewBox="0 0 64.000000 64.000000"
 preserveAspectRatio="xMidYMid meet">

<g transform="translate(0.000000,64.000000) scale(0.100000,-0.100000)"
 stroke="none">
<path d="M237 576 c-58 -21 -105 -57 -137 -104 -16 -24 -30 -48 -32 -53 -2 -6
-10 -11 -18 -12 -34 -5 -40 -19 -40 -87 0 -68 6 -82 40 -87 8 -1 16 -6 18 -12
11 -32 65 -98 102 -122 79 -53 155 -62 244 -29 56 21 137 95 150 137 4 12 20
26 36 32 29 10 30 11 30 80 0 74 -5 84 -49 90 -5 0 -13 11 -17 23 -3 12 -27
43 -51 69 -73 78 -183 108 -276 75z m164 -16 c46 -13 112 -70 145 -126 16 -28
33 -44 45 -44 17 0 19 -8 19 -70 0 -62 -2 -70 -19 -70 -12 0 -29 -16 -45 -44
-33 -56 -99 -113 -145 -126 -53 -15 -133 -12 -175 5 -49 21 -113 80 -137 127
-13 25 -26 38 -39 38 -18 0 -20 7 -20 70 0 63 2 70 20 70 13 0 26 13 39 38 25
47 86 106 131 125 41 18 130 21 181 7z"/>
<path d="M223 520 c-85 -43 -127 -119 -121 -216 5 -74 37 -130 100 -171 36
-24 51 -28 118 -28 67 0 82 4 118 28 23 15 54 46 69 69 24 36 28 51 28 118 0
67 -4 82 -28 118 -43 65 -97 96 -176 100 -52 2 -75 -1 -108 -18z m200 -22
c162 -89 126 -330 -56 -379 -144 -39 -287 104 -248 248 36 138 180 199 304
131z"/>
<path d="M267 490 c-16 -5 -35 -14 -42 -20 -8 -7 -19 -9 -25 -5 -6 3 -18 -12
-29 -37 -26 -60 -35 -108 -22 -108 6 0 11 11 11 25 0 15 11 36 25 49 14 13 25
28 25 35 0 16 60 51 88 51 12 0 22 5 22 10 0 12 -14 12 -53 0z"/>
<path d="M347 468 c-8 -30 -3 -33 33 -18 33 14 38 25 14 34 -28 11 -42 6 -47
-16z m33 2 c0 -5 -5 -10 -11 -10 -5 0 -7 5 -4 10 3 6 8 10 11 10 2 0 4 -4 4
-10z"/>
<path d="M284 449 c-10 -17 13 -36 27 -22 12 12 4 33 -11 33 -5 0 -12 -5 -16
-11z"/>
<path d="M231 396 c-14 -15 -24 -41 -27 -68 l-4 -43 15 48 c9 26 25 53 35 60
11 6 20 15 20 19 0 15 -17 8 -39 -16z"/>
<path d="M467 414 c-4 -4 -7 -18 -7 -31 0 -18 5 -24 18 -21 10 2 17 12 17 27
0 24 -15 37 -28 25z"/>
<path d="M433 358 c1 -18 -2 -44 -6 -58 -8 -24 -7 -24 7 -6 17 22 22 81 7 91
-5 3 -9 -9 -8 -27z"/>
<path d="M360 330 c0 -15 5 -20 18 -18 9 2 17 10 17 18 0 8 -8 16 -17 18 -13
2 -18 -3 -18 -18z"/>
<path d="M280 317 c0 -33 27 -56 36 -32 8 19 -5 46 -24 53 -7 2 -12 -6 -12
-21z m24 -13 c3 -8 2 -12 -4 -9 -6 3 -10 10 -10 16 0 14 7 11 14 -7z"/>
<path d="M481 312 c-2 -35 -38 -100 -66 -118 -13 -9 -44 -22 -67 -29 -37 -12
-39 -14 -15 -14 84 -2 168 86 154 160 l-4 24 -2 -23z"/>
<path d="M398 262 c-32 -4 -36 -22 -9 -39 16 -10 22 -8 37 8 21 23 10 36 -28
31z m22 -16 c0 -11 -19 -15 -25 -6 -3 5 1 10 9 10 9 0 16 -2 16 -4z"/>
<path d="M170 247 c0 -7 6 -21 13 -31 11 -15 17 -17 35 -7 30 16 27 27 -9 40
-40 14 -39 14 -39 -2z m35 -17 c3 -5 1 -10 -4 -10 -6 0 -11 5 -11 10 0 6 2 10
4 10 3 0 8 -4 11 -10z"/>
<path d="M261 166 c-12 -14 -5 -26 16 -26 15 0 18 26 4 34 -5 3 -14 0 -20 -8z"/>
</g>
</svg>
