<?xml version="1.0" standalone="no"?>
<!DOCTYPE svg PUBLIC "-//W3C//DTD SVG 20010904//EN"
 "http://www.w3.org/TR/2001/REC-SVG-20010904/DTD/svg10.dtd">
<svg fill="none" version="1.0" xmlns="http://www.w3.org/2000/svg"
 width="64.000000pt" height="64.000000pt" viewBox="0 0 64.000000 64.000000"
 preserveAspectRatio="xMidYMid meet">

<g transform="translate(0.000000,64.000000) scale(0.100000,-0.100000)"
 stroke="none">
<path d="M252 520 c-81 -50 -95 -163 -28 -219 14 -12 11 -17 -22 -41 -40 -28
-67 -75 -78 -129 -6 -26 -4 -31 14 -31 14 0 21 9 26 32 3 18 13 43 22 56 l16
24 28 -27 c28 -27 30 -27 54 -11 32 21 42 20 75 -3 l27 -20 18 30 c9 16 21 29
26 29 14 0 39 -42 46 -78 5 -22 12 -32 25 -32 48 0 -13 136 -75 170 l-25 13
24 29 c31 36 39 68 31 112 -18 95 -124 145 -204 96z m117 -34 c47 -25 63 -83
37 -135 -35 -66 -137 -66 -172 0 -47 91 44 182 135 135z m-1 -232 c23 -6 30
-28 12 -39 -5 -3 -21 2 -35 11 -23 15 -27 15 -51 -1 -24 -15 -28 -16 -42 -1
-14 14 -13 16 9 25 28 11 74 13 107 5z"/>
</g>
</svg>
