<svg xmlns="http://www.w3.org/2000/svg" width="85.333" height="85.333" fill="none" preserveAspectRatio="xMidYMid meet" version="1.0" viewBox="0 0 64 64"><g stroke="none"><path d="M223 602 c-251 -90 -272 -432 -35 -549 81 -40 183 -40 264 0 107 53 163 144 163 267 0 85 -21 142 -74 203 -72 81 -213 117 -318 79z m207 -33 c171 -77 215 -302 87 -438 -103 -108 -291 -108 -394 0 -101 107 -97 286 8 386 77 73 205 95 299 52z" transform="translate(0.000000,64.000000) scale(0.100000,-0.100000)"/><path d="M281 471 l-30 -58 -60 -7 c-33 -4 -63 -10 -65 -15 -3 -4 15 -28 40 -52 l45 -44 -6 -54 c-4 -30 -9 -60 -12 -68 -8 -20 17 -16 74 15 l53 27 53 -27 c57 -31 82 -35 74 -15 -3 8 -8 38 -12 68 l-6 54 45 44 c25 24 43 48 40 52 -2 5 -32 11 -65 15 l-60 7 -30 58 c-16 33 -34 59 -39 59 -5 0 -23 -26 -39 -59z m66 -35 c20 -41 25 -44 72 -51 28 -4 51 -9 51 -12 0 -3 -17 -20 -37 -38 l-36 -31 10 -52 c12 -59 7 -62 -44 -31 l-35 22 -44 -22 c-25 -11 -48 -21 -53 -21 -4 0 -4 23 2 52 10 51 10 51 -26 85 -21 18 -37 35 -37 37 0 2 23 7 51 11 47 7 52 10 72 51 11 24 24 44 27 44 3 0 16 -20 27 -44z" transform="translate(0.000000,64.000000) scale(0.100000,-0.100000)"/></g></svg>