<?xml version="1.0" standalone="no"?>
<!DOCTYPE svg PUBLIC "-//W3C//DTD SVG 20010904//EN"
 "http://www.w3.org/TR/2001/REC-SVG-20010904/DTD/svg10.dtd">
<svg fill="none" version="1.0" xmlns="http://www.w3.org/2000/svg"
 width="64.000000pt" height="64.000000pt" viewBox="0 0 64.000000 64.000000"
 preserveAspectRatio="xMidYMid meet">

<g transform="translate(0.000000,64.000000) scale(0.100000,-0.100000)"
 stroke="none">
<path d="M101 476 c-8 -13 -11 -30 -9 -37 5 -15 -14 -39 -31 -39 -6 0 -11 9
-11 20 0 11 5 20 10 20 6 0 10 5 10 10 0 6 -9 10 -20 10 -17 0 -20 -7 -20 -39
0 -36 3 -40 27 -44 26 -4 26 -4 -4 -6 -31 -1 -33 -3 -33 -40 0 -42 37 -151 51
-151 5 0 9 -9 9 -20 0 -16 7 -20 30 -20 23 0 30 4 30 20 0 19 7 20 180 20 173
0 180 -1 180 -20 0 -16 7 -20 30 -20 23 0 30 4 30 20 0 11 4 20 9 20 14 0 51
109 51 151 0 37 -2 39 -32 40 -31 2 -31 2 -5 6 24 4 27 8 27 44 0 32 -3 39
-20 39 -11 0 -20 -4 -20 -10 0 -5 5 -10 10 -10 6 0 10 -9 10 -20 0 -11 -5 -20
-10 -20 -19 0 -37 24 -33 44 2 12 -4 30 -12 40 -15 20 -15 20 -30 0 -8 -10
-14 -29 -11 -41 3 -19 -1 -23 -24 -23 -23 0 -27 4 -24 23 3 12 -3 31 -11 41
-15 20 -15 20 -30 0 -8 -10 -14 -28 -12 -40 4 -20 -14 -44 -33 -44 -5 0 -10 9
-10 20 0 11 5 20 10 20 6 0 10 5 10 10 0 6 -9 10 -20 10 -17 0 -20 -7 -20 -39
0 -36 3 -40 28 -44 15 -2 -2 -4 -38 -4 -36 0 -53 2 -37 4 24 4 27 8 27 44 0
32 -3 39 -20 39 -11 0 -20 -4 -20 -10 0 -5 5 -10 10 -10 6 0 10 -9 10 -20 0
-11 -5 -20 -10 -20 -19 0 -37 24 -33 44 2 12 -4 30 -12 40 -15 20 -15 20 -30
0 -8 -10 -14 -29 -11 -41 3 -19 -1 -23 -25 -23 -22 0 -27 4 -22 16 6 15 -14
64 -27 64 -4 0 -12 -11 -19 -24z m29 -26 c0 -5 -4 -10 -10 -10 -5 0 -10 5 -10
10 0 6 5 10 10 10 6 0 10 -4 10 -10z m100 0 c0 -5 -4 -10 -10 -10 -5 0 -10 5
-10 10 0 6 5 10 10 10 6 0 10 -4 10 -10z m200 0 c0 -5 -4 -10 -10 -10 -5 0
-10 5 -10 10 0 6 5 10 10 10 6 0 10 -4 10 -10z m100 0 c0 -5 -4 -10 -10 -10
-5 0 -10 5 -10 10 0 6 5 10 10 10 6 0 10 -4 10 -10z m-290 -65 c0 -12 -14 -15
-70 -15 -56 0 -70 3 -70 15 0 12 14 15 70 15 56 0 70 -3 70 -15z m300 0 c0
-12 -14 -15 -70 -15 -56 0 -70 3 -70 15 0 12 14 15 70 15 56 0 70 -3 70 -15z
m60 -60 c0 -22 -4 -25 -39 -25 -22 0 -44 6 -51 15 -7 8 -20 15 -30 15 -10 0
-23 -7 -30 -15 -7 -8 -16 -15 -21 -15 -5 0 -9 7 -9 15 0 12 -18 15 -100 15
-82 0 -100 -3 -100 -15 0 -8 -4 -15 -9 -15 -5 0 -14 7 -21 15 -7 8 -20 15 -30
15 -10 0 -23 -7 -30 -15 -7 -9 -29 -15 -51 -15 -35 0 -39 3 -39 25 l0 25 280
0 280 0 0 -25z m-424 -26 c10 -17 -13 -36 -27 -22 -12 12 -4 33 11 33 5 0 12
-5 16 -11z m224 -9 c0 -18 -7 -20 -80 -20 -73 0 -80 2 -80 20 0 18 7 20 80 20
73 0 80 -2 80 -20z m96 9 c10 -17 -13 -36 -27 -22 -12 12 -4 33 11 33 5 0 12
-5 16 -11z m-366 -34 c7 -8 21 -15 31 -15 11 0 19 -4 19 -10 0 -5 7 -10 15
-10 12 0 13 4 6 19 -10 18 -6 31 11 31 4 0 8 -7 8 -15 0 -12 18 -15 100 -15
82 0 100 3 100 15 0 8 4 15 8 15 17 0 21 -13 11 -31 -7 -15 -6 -19 6 -19 8 0
15 5 15 10 0 6 8 10 19 10 10 0 24 7 31 15 12 15 80 22 80 8 0 -4 -5 -22 -12
-40 l-12 -33 -246 0 -246 0 -12 33 c-7 18 -12 36 -12 40 0 14 68 7 80 -8z
m-10 -95 c0 -5 -4 -10 -10 -10 -5 0 -10 5 -10 10 0 6 5 10 10 10 6 0 10 -4 10
-10z m420 0 c0 -5 -4 -10 -10 -10 -5 0 -10 5 -10 10 0 6 5 10 10 10 6 0 10 -4
10 -10z"/>
</g>
</svg>
